<svg width="20" height="21" viewBox="0 0 20 21" fill="none" xmlns="http://www.w3.org/2000/svg">
<rect x="0.000244141" y="0.366394" width="20" height="20" rx="10" fill="#92000E"/>
<path d="M6.35587 10.1304C6.35587 8.51573 6.62654 7.25573 7.16787 6.35039C7.71854 5.43573 8.6612 4.97839 9.99587 4.97839C11.3305 4.97839 12.2685 5.43573 12.8099 6.35039C13.3605 7.25573 13.6359 8.51573 13.6359 10.1304C13.6359 11.7637 13.3605 13.0424 12.8099 13.9664C12.2685 14.8811 11.3305 15.3384 9.99587 15.3384C8.6612 15.3384 7.71854 14.8811 7.16787 13.9664C6.62654 13.0424 6.35587 11.7637 6.35587 10.1304ZM12.0679 10.1304C12.0679 9.37439 12.0165 8.73506 11.9139 8.21239C11.8205 7.68973 11.6245 7.26506 11.3259 6.93839C11.0272 6.60239 10.5839 6.43439 9.99587 6.43439C9.40787 6.43439 8.96454 6.60239 8.66587 6.93839C8.3672 7.26506 8.16654 7.68973 8.06387 8.21239C7.97054 8.73506 7.92387 9.37439 7.92387 10.1304C7.92387 10.9144 7.97054 11.5724 8.06387 12.1044C8.1572 12.6364 8.3532 13.0657 8.65187 13.3924C8.95987 13.7191 9.40787 13.8824 9.99587 13.8824C10.5839 13.8824 11.0272 13.7191 11.3259 13.3924C11.6339 13.0657 11.8345 12.6364 11.9279 12.1044C12.0212 11.5724 12.0679 10.9144 12.0679 10.1304Z" fill="white"/>
</svg>
